<?xml version="1.0" standalone="no"?>
<!DOCTYPE svg PUBLIC "-//W3C//DTD SVG 1.1//EN" "http://www.w3.org/Graphics/SVG/1.1/DTD/svg11.dtd" >
<svg xmlns="http://www.w3.org/2000/svg">
<metadata></metadata>
<defs>
<font id="ratherregular" horiz-adv-x="1187" >
<font-face units-per-em="2048" ascent="1638" descent="-410" />
<missing-glyph horiz-adv-x="512" />
<glyph horiz-adv-x="0" />
<glyph horiz-adv-x="682" />
<glyph unicode="&#xd;" horiz-adv-x="512" />
<glyph unicode=" "  horiz-adv-x="512" />
<glyph unicode="&#x09;" horiz-adv-x="512" />
<glyph unicode="&#xa0;" horiz-adv-x="512" />
<glyph unicode="!" horiz-adv-x="509" d="M154 1546h202l-20 -1186h-162zM156 0v195h198v-195h-198z" />
<glyph unicode="&#x22;" horiz-adv-x="776" d="M123 985v561h162v-561h-162zM492 985v561h161v-561h-161z" />
<glyph unicode="#" horiz-adv-x="1447" d="M113 365l20 188h209l31 283h-199l21 188h198l51 461h215l-51 -461h330l51 461h195l-51 -461h223l-21 -188h-223l-31 -283h213l-20 -188h-213l-39 -365h-195l39 365h-329l-39 -365h-215l39 365h-209zM557 553h330l31 283h-330z" />
<glyph unicode="$" horiz-adv-x="1394" d="M106 477h201q29 -158 104.5 -233t223.5 -92v532l-170 41q-146 36 -232 134t-86 263q0 89 27.5 165.5t84.5 138.5t153 100t223 45v123h106v-123q132 -7 232 -47.5t161 -109.5t93.5 -154.5t38.5 -190.5h-203q-22 147 -96.5 232t-225.5 98v-539l211 -51q336 -80 336 -397 q0 -210 -144.5 -322t-402.5 -117v-131h-106v135q-131 10 -230 51t-161.5 108t-96 151.5t-41.5 189.5zM348 1126q0 -89 51.5 -142t165.5 -81l70 -16v512q-65 -5 -116 -24.5t-82.5 -46t-52 -62t-28.5 -69.5t-8 -71zM741 145q163 3 253.5 67t90.5 187q0 54 -17.5 94.5t-52 66.5 t-72.5 42t-91 29l-111 26v-512z" />
<glyph unicode="%" horiz-adv-x="1812" d="M119 1223q0 128 89.5 218.5t217.5 90.5t218.5 -91t90.5 -218q0 -129 -90.5 -218.5t-218.5 -89.5q-129 0 -218 89.5t-89 218.5zM276 1223q0 -59 44.5 -104.5t105.5 -45.5q59 0 103 45.5t44 104.5q0 61 -43.5 104t-103.5 43q-62 0 -106 -43t-44 -104zM389 63l881 1528 l157 -100l-882 -1528zM1077 315q0 128 89.5 219t217.5 91t219 -91.5t91 -218.5q0 -128 -91 -217.5t-219 -89.5q-129 0 -218 89t-89 218zM1235 315q0 -59 44 -104t105 -45q60 0 104 45t44 104q0 61 -44 104.5t-104 43.5q-62 0 -105.5 -43.5t-43.5 -104.5z" />
<glyph unicode="&#x26;" horiz-adv-x="1503" d="M133 397q0 267 248 398l55 28q-107 114 -151.5 201.5t-44.5 183.5q0 152 113.5 259.5t291.5 107.5q194 0 314 -95.5t120 -273.5q0 -124 -74 -226t-188 -163l-86 -45l356 -387q33 65 42.5 136t9.5 177h182q0 -134 -21 -247t-83 -207l225 -244h-236l-110 117 q-87 -65 -204.5 -105.5t-246.5 -40.5q-121 0 -220 35.5t-162 95t-96.5 135.5t-33.5 160zM324 399q0 -124 88.5 -188t234.5 -64q87 0 174.5 27t151.5 74l-418 448l-76 -41q-79 -44 -117 -104.5t-38 -151.5zM436 1208q0 -68 34.5 -135t141.5 -172l82 43q193 98 193 264 q0 88 -67.5 140.5t-174.5 52.5q-98 0 -153.5 -54t-55.5 -139z" />
<glyph unicode="'" horiz-adv-x="448" d="M123 985v561h203v-561h-203z" />
<glyph unicode="(" horiz-adv-x="634" d="M102 770q0 187 11.5 307.5t46.5 234.5t94.5 208.5t161.5 212.5h188q-97 -122 -156.5 -229t-91.5 -224t-42.5 -230.5t-10.5 -279.5t10.5 -279.5t42.5 -231.5t91.5 -225t156.5 -229h-188q-102 118 -161.5 213t-94.5 209.5t-46.5 235t-11.5 307.5z" />
<glyph unicode=")" horiz-adv-x="634" d="M31 -195q97 122 156.5 229t91.5 225t42.5 231.5t10.5 279.5t-10.5 279.5t-42.5 230.5t-91.5 224t-156.5 229h188q102 -118 161.5 -212.5t94.5 -209t46 -234.5t11 -307q0 -249 -23 -397t-89 -280.5t-201 -287.5h-188z" />
<glyph unicode="*" horiz-adv-x="759" d="M53 1120l223 94l-223 95l80 139l193 -141l-27 239h162l-29 -239l195 141l80 -139l-226 -95l226 -94l-80 -139l-195 141l29 -239h-162l27 239l-193 -141z" />
<glyph unicode="+" horiz-adv-x="1091" d="M113 602v168h348v369h168v-369h350v-168h-350v-371h-168v371h-348z" />
<glyph unicode="," horiz-adv-x="448" d="M-33 -236l223 472h211l-247 -472h-187z" />
<glyph unicode="-" horiz-adv-x="1093" d="M143 502h807v168h-807v-168z" />
<glyph unicode="." horiz-adv-x="423" d="M106 0v207h211v-207h-211z" />
<glyph unicode="/" horiz-adv-x="884" d="M82 0l713 1546h202l-712 -1546h-203z" />
<glyph unicode="0" horiz-adv-x="1398" d="M133 541v465q0 269 148 418t421 149q284 0 424 -147t140 -420v-465q0 -273 -140 -420.5t-424 -147.5q-285 0 -427 147.5t-142 420.5zM336 549q0 -402 366 -402q361 0 361 402v448q0 402 -361 402q-366 0 -366 -402v-448z" />
<glyph unicode="1" horiz-adv-x="819" d="M123 1368v178h471v-1546h-203v1368h-268z" />
<glyph unicode="2" horiz-adv-x="1376" d="M125 1069h203q45 332 340 332q98 0 172.5 -31t115 -81.5t60.5 -106.5t20 -115q0 -55 -19 -106t-54.5 -96t-65 -74.5t-72.5 -65.5l-641 -537v-188h1043v180h-768l475 379q47 37 80 66t80 81t76.5 101.5t51 118.5t21.5 141q0 77 -22 149.5t-68.5 137.5t-113 113.5t-162 77 t-209.5 28.5q-105 0 -192.5 -29t-148 -77.5t-104.5 -114.5t-67 -136.5t-31 -146.5z" />
<glyph unicode="3" horiz-adv-x="1439" d="M117 477h200q27 -162 133 -245t261 -85q163 -2 267.5 82.5t104.5 229.5v78q0 129 -104 206.5t-268 77.5h-176v156l460 395h-845v174h1081v-215l-408 -348q86 0 168.5 -30t148 -84t106 -138t40.5 -182v-111q0 -210 -154 -337.5t-409 -127.5q-271 0 -431.5 141t-174.5 363z " />
<glyph unicode="4" horiz-adv-x="1361" d="M102 348v178l740 1020h215v-1020h192v-178h-192v-348h-203v348h-752zM311 526h543v740z" />
<glyph unicode="5" horiz-adv-x="1427" d="M133 477h201q27 -163 132.5 -245.5t260.5 -84.5q163 -2 268 84t105 232v84q0 128 -90 216.5t-236 88.5q-238 0 -350 -178h-225v872h1052v-178h-854v-502q65 65 101 89q109 75 276 75q105 0 199 -30.5t168 -87.5t118 -149t44 -206v-117q0 -212 -154.5 -339.5 t-409.5 -127.5q-271 0 -431.5 141t-174.5 363z" />
<glyph unicode="6" horiz-adv-x="1398" d="M123 469q0 -229 150 -362.5t409 -133.5t417 129t158 332v103q0 138 -77 243.5t-200 159t-267 53.5q-136 0 -241.5 -43.5t-156.5 -103.5v129q0 217 106.5 321.5t301.5 104.5q163 0 254.5 -90.5t107.5 -241.5h181q-7 77 -28.5 146.5t-64.5 136t-103.5 114.5t-152 77.5 t-204.5 29.5q-140 0 -247.5 -38.5t-171 -98t-103.5 -142t-54 -160t-14 -163.5v-502zM326 457v53q0 136 95 223.5t269 87.5t269.5 -87.5t95.5 -223.5v-53q0 -137 -93 -224.5t-266 -87.5q-174 0 -272 88t-98 224z" />
<glyph unicode="7" horiz-adv-x="1138" d="M96 1368v178h948v-178l-409 -1368h-199l410 1368h-750z" />
<glyph unicode="8" horiz-adv-x="1380" d="M133 424q0 -197 145.5 -322.5t411.5 -128.5q260 0 408.5 126t148.5 325q0 73 -21 135t-51.5 101t-69.5 68t-71.5 42t-60.5 18q31 16 56 31t59.5 45.5t57.5 65t39.5 88t16.5 115.5q0 90 -30.5 167.5t-90.5 139.5t-160.5 97.5t-230.5 35.5t-230.5 -35.5t-160.5 -97.5 t-90.5 -139.5t-30.5 -167.5q0 -76 23 -138t63 -102.5t71.5 -62.5t72.5 -42q-30 -5 -63.5 -19t-72 -43t-69 -68t-50.5 -100.5t-20 -133.5zM338 426q0 57 16 103t53 87.5t109 65t174 23.5t174 -23.5t109 -65t53 -87.5t16 -103t-16 -103t-53 -87.5t-109 -65t-174 -23.5 t-174 23.5t-109 65t-53 87.5t-16 103zM381 1133q0 56 15 101.5t48.5 85t96 61.5t149.5 22t149.5 -22t96 -61.5t48.5 -85t15 -101.5t-15 -101.5t-48.5 -85.5t-96 -62t-149.5 -22t-149.5 22t-96 62t-48.5 85.5t-15 101.5z" />
<glyph unicode="9" horiz-adv-x="1398" d="M133 477q7 -77 28.5 -146.5t64.5 -136t103.5 -114.5t152 -77.5t204.5 -29.5q101 0 185 20t143 53.5t104.5 82t73 100.5t44.5 113.5t23.5 117t6.5 115.5v502q0 230 -145.5 363t-403.5 133q-259 0 -417.5 -129t-158.5 -332v-102q0 -138 77.5 -244t200.5 -159.5t267 -53.5 q136 0 241 43.5t156 103.5v-129q0 -218 -106.5 -322t-300.5 -104q-163 0 -255 90.5t-108 241.5h-180zM344 1036v54q0 137 92.5 224t265.5 87q174 0 272.5 -87.5t98.5 -223.5v-54q0 -136 -95 -223.5t-269 -87.5t-269.5 87.5t-95.5 223.5z" />
<glyph unicode=":" horiz-adv-x="505" d="M154 0v195h198v-195h-198zM154 829v195h198v-195h-198z" />
<glyph unicode=";" horiz-adv-x="550" d="M-33 -236l223 472h211l-247 -472h-187zM199 829v195h198v-195h-198z" />
<glyph unicode="&#x3c;" horiz-adv-x="1705" d="M193 637v262l1290 543v-199l-1129 -471l1129 -500v-198z" />
<glyph unicode="=" horiz-adv-x="1122" d="M113 377h907v168h-907v-168zM113 827h907v168h-907v-168z" />
<glyph unicode="&#x3e;" horiz-adv-x="1705" d="M193 74v198l1128 500l-1128 471v199l1290 -543v-262z" />
<glyph unicode="?" horiz-adv-x="1316" d="M133 1069q6 78 24 145.5t57 135t95.5 115.5t146 78t203.5 30q129 0 231 -37t165 -101t96 -147t33 -178q0 -207 -133 -331t-357 -124v-268h-180v424h150q160 0 237.5 79.5t77.5 215.5q0 59 -17 110t-53.5 93.5t-101.5 67t-152 24.5q-154 0 -231 -81.5t-96 -250.5h-195z M500 0v207h211v-207h-211z" />
<glyph unicode="@" horiz-adv-x="1542" d="M143 188v230q0 130 40.5 242.5t119.5 201t207 139t291 50.5q162 0 297.5 -46.5t218 -134.5t82.5 -200v-670h-170l-8 94q-79 -58 -185.5 -90.5t-212.5 -32.5q-151 0 -249.5 72.5t-98.5 218.5q0 81 32.5 144t87.5 100.5t119 57.5t136 24l348 20v54q0 57 -36.5 102.5 t-96.5 71.5t-129 39.5t-141 13.5q-233 0 -358.5 -134.5t-125.5 -371.5v-166q0 -467 531 -467h555v-166h-596q-318 0 -488 158.5t-170 445.5zM664 281q0 -69 52 -105.5t138 -36.5q78 0 168.5 30.5t175.5 88.5v197l-307 -21q-107 -12 -167 -46t-60 -107z" />
<glyph unicode="A" horiz-adv-x="1251" d="M49 0l473 1546h207l473 -1546h-201l-127 430h-495l-129 -430h-201zM430 600h391l-194 670z" />
<glyph unicode="B" horiz-adv-x="1255" d="M154 0v1546h489q117 0 204.5 -22t139.5 -57.5t83.5 -89t42.5 -108.5t11 -124q0 -101 -30 -170.5t-76 -103t-113 -50.5q112 -33 176 -117t64 -245q0 -63 -8 -116t-27.5 -107t-55 -95t-87 -74t-128.5 -50t-175 -17h-510zM356 172h308q83 0 139.5 20t86 59.5t41 86.5 t11.5 113t-13 114t-45.5 88t-94 61t-152.5 21h-281v-563zM356 907h281q163 0 224 54.5t61 168.5q0 62 -11.5 104t-41.5 75t-86 49t-140 16h-287v-467z" />
<glyph unicode="C" horiz-adv-x="1474" d="M109 651v234q0 66 4 122t19 129.5t40 131t72 117t110 99t158 64.5t213 25q115 0 209.5 -21t160 -55.5t115 -85.5t78.5 -103t48 -117t26.5 -119.5t9.5 -117.5h-205q-3 73 -14.5 133t-42 120t-78 101.5t-126 67t-181.5 25.5q-102 0 -178 -29.5t-119.5 -76t-70.5 -114.5 t-35.5 -133t-8.5 -145v-260q0 -54 4 -100.5t16 -98.5t31 -93.5t51 -80.5t74 -65.5t102.5 -42t133.5 -15.5q121 0 207.5 34t134.5 95t70.5 129t29.5 154h205q-4 -61 -13 -114t-29.5 -114.5t-51 -111t-80.5 -96.5t-114.5 -79t-156 -51.5t-202.5 -19.5q-118 0 -213 24.5 t-158 63t-110 97t-72 115t-40 129t-19 128t-4 121.5z" />
<glyph unicode="D" horiz-adv-x="1394" d="M154 0h483q126 0 226.5 23.5t167.5 60.5t115.5 94t75 111.5t41.5 126.5t19 125.5t4 120.5v223q0 51 -2 92.5t-10 97t-21.5 100t-38 94.5t-57.5 88.5t-82.5 75.5t-111 60.5t-145 38t-181.5 14.5h-483v-1546zM356 174v1200h281q112 0 194 -27t129 -69t75 -106.5t37 -126.5 t9 -142v-260q0 -78 -9 -139t-37 -125.5t-75 -107t-129.5 -70t-193.5 -27.5h-281z" />
<glyph unicode="E" horiz-adv-x="1325" d="M154 0v1546h1048v-172h-846v-491h781v-168h-781v-543h846v-172h-1048z" />
<glyph unicode="F" horiz-adv-x="1167" d="M154 0v1546h938v-188h-736v-459h670v-184h-670v-715h-202z" />
<glyph unicode="G" horiz-adv-x="1531" d="M109 606v334q0 134 35.5 245.5t109 200t198.5 138t293 49.5q150 0 266 -39.5t189.5 -111.5t114.5 -165.5t51 -207.5h-207q-36 352 -414 352q-229 0 -331.5 -124.5t-102.5 -363.5v-280q0 -239 102.5 -363.5t331.5 -124.5q93 0 175.5 33.5t138.5 88.5t88.5 126.5 t32.5 145.5v131h-502v174h704v-844h-163l-25 176q-162 -203 -449 -203q-168 0 -293 49.5t-198.5 138t-109 200t-35.5 245.5z" />
<glyph unicode="H" horiz-adv-x="1476" d="M154 0v1546h202v-633h764v633h203v-1546h-203v737h-764v-737h-202z" />
<glyph unicode="I" horiz-adv-x="509" d="M154 0v1546h202v-1546h-202z" />
<glyph unicode="J" horiz-adv-x="1167" d="M76 293q0 -58 32.5 -115.5t89 -104t143 -75.5t185.5 -29q118 0 207.5 30.5t141.5 77.5t84.5 113t43.5 128t11 133v1095h-205v-1108q0 -137 -69 -216t-214 -79q-114 0 -183 58t-69 145v51h-198v-104z" />
<glyph unicode="K" horiz-adv-x="1318" d="M154 0v1546h202v-772l664 772h250l-635 -745l657 -801h-243l-535 651l-158 -184v-467h-202z" />
<glyph unicode="L" horiz-adv-x="1275" d="M154 0v1546h202v-1358h858v-188h-1060z" />
<glyph unicode="M" horiz-adv-x="1548" d="M154 0v1546h202l418 -694l418 694h203v-1546h-203v1174l-320 -525h-196l-320 525v-1174h-202z" />
<glyph unicode="N" horiz-adv-x="1376" d="M154 0v1546h172l694 -1116v1116h203v-1546h-172l-695 1122v-1122h-202z" />
<glyph unicode="O" horiz-adv-x="1490" d="M109 606v334q0 134 35.5 245.5t109 200t198.5 138t293 49.5q134 0 242 -33t181 -90t121.5 -138t70.5 -173.5t22 -198.5v-334q0 -106 -22 -198.5t-70.5 -173.5t-121.5 -138t-181 -90t-242 -33q-168 0 -293 49.5t-198.5 138t-109 200t-35.5 245.5zM311 633 q0 -239 102.5 -363.5t331.5 -124.5q228 0 331.5 125t103.5 363v280q0 238 -103.5 363t-331.5 125q-229 0 -331.5 -124.5t-102.5 -363.5v-280z" />
<glyph unicode="P" horiz-adv-x="1298" d="M154 0h202v612h316q121 0 214 25.5t151.5 68t95.5 103.5t52 126.5t15 143.5t-15 143.5t-52 126.5t-95 103.5t-150.5 68t-211.5 25.5h-522v-1546zM356 784v590h299q178 0 260 -72.5t82 -222.5t-82.5 -222.5t-263.5 -72.5h-295z" />
<glyph unicode="Q" horiz-adv-x="1517" d="M109 606v334q0 134 35.5 245.5t109 200t198.5 138t293 49.5q134 0 242 -33t181 -90t121.5 -138t70.5 -173.5t22 -198.5v-334q0 -301 -168 -469l164 -164l-139 -131l-186 187q-134 -56 -308 -56q-168 0 -293 49.5t-198.5 138t-109 200t-35.5 245.5zM311 633 q0 -239 102.5 -363.5t331.5 -124.5q89 0 170 23l-180 180l139 131l205 -207q101 121 101 361v280q0 238 -103.5 363t-331.5 125q-229 0 -331.5 -124.5t-102.5 -363.5v-280z" />
<glyph unicode="R" horiz-adv-x="1302" d="M154 0v1546h522q119 0 211.5 -25.5t150.5 -68t95 -103.5t52 -126.5t15 -143.5q0 -340 -285 -432l289 -647h-217l-266 614l-49 -2h-316v-612h-202zM356 784h295q181 0 263.5 72.5t82.5 222.5t-82 222.5t-260 72.5h-299v-590z" />
<glyph unicode="S" horiz-adv-x="1394" d="M106 477h201q31 -170 117 -245.5t258 -84.5q23 -1 45 -1q157 0 251 56q108 64 107 197q0 54 -17.5 94.5t-52 66.5t-72.5 42t-91 29l-387 94q-146 36 -232 134t-86 263q0 95 30.5 174t93.5 142.5t169.5 99t247.5 35.5q146 0 256.5 -38.5t177.5 -108t102.5 -158.5 t41.5 -199h-203q-11 77 -35.5 135t-67 103.5t-111 69.5t-161.5 24q-96 0 -165.5 -25t-106 -67t-52.5 -87.5t-16 -95.5q0 -89 51.5 -142t165.5 -81l387 -94q336 -80 336 -397q0 -215 -150 -327t-417 -112q-154 0 -269.5 37t-187.5 105.5t-110.5 158.5t-47.5 203z" />
<glyph unicode="T" horiz-adv-x="1247" d="M41 1370v176h1165v-176h-491v-1370h-203v1370h-471z" />
<glyph unicode="U" horiz-adv-x="1466" d="M137 569q0 -66 6 -123t22.5 -119.5t43 -112.5t71.5 -96t103.5 -77t142.5 -49.5t187 -18.5q110 0 200 18.5t153 49.5t111 77t76 96t46 112.5t24 119.5t6 123v977h-205v-944q0 -82 -9 -144.5t-35 -123.5t-70.5 -100t-119.5 -63t-177 -24q-92 0 -159.5 24t-107.5 63t-64 100 t-32 123.5t-8 144.5v944l-205 2v-979z" />
<glyph unicode="V" horiz-adv-x="1331" d="M35 1546h205l424 -1272l428 1272h204l-532 -1546h-197z" />
<glyph unicode="W" horiz-adv-x="2084" d="M35 1546h205l358 -1222l350 1222h189l350 -1222l358 1222h205l-471 -1546h-197l-340 1165l-340 -1165h-196z" />
<glyph unicode="X" horiz-adv-x="1265" d="M41 0l481 791l-459 755h226l344 -573l344 573h225l-461 -755l484 -791h-226l-366 608l-367 -608h-225z" />
<glyph unicode="Y" horiz-adv-x="1275" d="M20 1546h224l393 -667l395 667h223l-516 -862v-684h-202v684z" />
<glyph unicode="Z" horiz-adv-x="1181" d="M113 0v176l665 1194h-661v176h884v-176l-665 -1194h731v-176h-954z" />
<glyph unicode="[" horiz-adv-x="626" d="M123 -354v2230h452v-141h-260v-1948h260v-141h-452z" />
<glyph unicode="\" horiz-adv-x="931" d="M-82 1546h203l713 -1546h-203z" />
<glyph unicode="]" horiz-adv-x="626" d="M51 -213h260v1948h-260v141h453v-2230h-453v141z" />
<glyph unicode="^" horiz-adv-x="1429" d="M133 612l461 961h262l440 -961h-202l-365 815l-393 -815h-203z" />
<glyph unicode="_" horiz-adv-x="1531" d="M113 -131v-209h1306v209h-1306z" />
<glyph unicode="`" horiz-adv-x="458" d="M-41 1550h191l186 -358h-191z" />
<glyph unicode="a" horiz-adv-x="1161" d="M92 696q16 146 140 250.5t319 104.5q204 0 341.5 -103t137.5 -239v-709h-170l-6 98q-77 -57 -184.5 -91t-212.5 -34q-72 0 -132.5 17t-110 52.5t-77.5 96.5t-28 142q0 74 33.5 132.5t91.5 95.5t131.5 57.5t158.5 25.5l307 20v88q0 54 -42.5 98.5t-105.5 67.5t-130 23 q-107 0 -183.5 -49.5t-90.5 -143.5h-187zM297 272q0 -62 51 -95.5t135 -33.5q168 0 348 119v197l-288 -21q-48 -6 -79 -11.5t-66 -17.5t-55 -28.5t-33 -44t-13 -64.5z" />
<glyph unicode="b" horiz-adv-x="1222" d="M143 0h160l2 115q61 -67 151.5 -104.5t186.5 -37.5q111 0 203 38.5t150.5 102t91 144t32.5 166.5v176q0 89 -25.5 166.5t-79.5 143t-149 103.5t-223 38q-187 0 -301 -127v622h-199v-1546zM342 424v184q3 114 76 197.5t192 83.5q82 0 143.5 -24t97 -65.5t52.5 -91.5 t17 -108v-176q0 -58 -17 -107.5t-52.5 -90.5t-97 -65t-143.5 -24q-122 0 -195 85t-73 202z" />
<glyph unicode="c" horiz-adv-x="1159" d="M100 418v182q0 58 12.5 115.5t45.5 119.5t84 109t136 77t193 30q111 0 197.5 -27.5t138.5 -69.5t86 -100.5t48 -112t18 -112.5h-193q-12 115 -83.5 187.5t-211.5 72.5q-130 0 -200 -84.5t-70 -204.5v-176q0 -120 70 -204.5t200 -84.5q140 0 211.5 72.5t83.5 185.5h193 q-3 -58 -17 -111.5t-48.5 -111.5t-86 -100t-138.5 -69.5t-198 -27.5q-108 0 -193 29.5t-136 75.5t-84 107t-45.5 118t-12.5 115z" />
<glyph unicode="d" horiz-adv-x="1216" d="M96 424q0 -86 30 -166t85.5 -144t144.5 -102.5t197 -38.5q213 0 358 142l2 -115h160v1546h-199v-622q-130 127 -321 127q-100 0 -179.5 -25.5t-130.5 -68t-85 -101t-48 -122t-14 -134.5v-176zM297 424v176q0 58 14.5 108t45 91.5t84 65.5t124.5 24q136 0 221 -83.5 t88 -197.5v-184q0 -117 -84 -202t-225 -85q-71 0 -124.5 24t-84 65t-45 90.5t-14.5 107.5z" />
<glyph unicode="e" horiz-adv-x="1181" d="M102 453v118q0 63 15 126.5t51.5 128t90.5 114t141 80.5t194 31t193.5 -31t141 -80.5t91 -114t51 -128t14.5 -126.5v-151h-788q9 -126 87.5 -205.5t215.5 -79.5q98 0 165 42.5t99 115.5h209q-20 -64 -57 -119t-93 -101.5t-139 -73t-184 -26.5q-107 0 -194.5 31 t-142.5 80.5t-92.5 114t-53 128t-15.5 126.5zM297 584h594q-6 136 -81 220.5t-216 84.5q-142 0 -217 -84.5t-80 -220.5z" />
<glyph unicode="f" horiz-adv-x="641" d="M51 856v168h146v133q0 205 78.5 297t230.5 92h84v-162h-68q-127 0 -127 -182v-178h183v-168h-183v-856h-198v856h-146z" />
<glyph unicode="g" horiz-adv-x="1222" d="M102 424q0 -69 16.5 -134t51.5 -123t84.5 -101t120.5 -68t155 -25q118 0 205 27.5t158 95.5v-159q0 -139 -77 -222.5t-222 -83.5q-128 0 -201.5 58.5t-79.5 197.5h-188q3 -95 30 -169t70 -120.5t103.5 -76t125 -41.5t140.5 -12q117 0 206.5 30.5t141 77t83.5 113t43 128 t11 132.5v1075h-174l-8 -123q-82 77 -164.5 113.5t-202.5 36.5q-84 0 -155 -25t-120.5 -68t-84.5 -101t-51.5 -123t-16.5 -134v-176zM301 424v176q0 121 69.5 199t196.5 78q141 0 227.5 -82t86.5 -195v-176q0 -113 -86.5 -195t-227.5 -82q-127 0 -196.5 78t-69.5 199z" />
<glyph unicode="h" horiz-adv-x="1228" d="M137 0v1546h199v-606q130 111 330 111q216 0 330 -119.5t114 -315.5v-616h-199v580q0 154 -74.5 225.5t-232.5 71.5q-123 0 -195.5 -73t-72.5 -183v-621h-199z" />
<glyph unicode="i" horiz-adv-x="485" d="M143 0v1024h199v-1024h-199zM143 1272v190h199v-190h-199z" />
<glyph unicode="j" horiz-adv-x="487" d="M-49 -342v-162h76q157 0 237 91.5t80 297.5v1139h-199v-1184q0 -182 -127 -182h-67zM143 1272v190h199v-190h-199z" />
<glyph unicode="k" horiz-adv-x="1030" d="M147 0v1546h199v-899l387 377l248 2l-416 -401l408 -625h-215l-326 494l-88 -82l2 -412h-199z" />
<glyph unicode="l" horiz-adv-x="473" d="M137 0v1546h199v-1546h-199z" />
<glyph unicode="m" horiz-adv-x="1863" d="M137 0h199v629q0 132 68 190t194 58q233 0 233 -256v-621h199v629q0 132 68 190t194 58q234 0 234 -256v-621h198v641q0 180 -103.5 295t-301.5 115q-112 0 -203 -48.5t-145 -130.5q-102 179 -346 179q-111 0 -183 -35.5t-143 -112.5v121h-162v-1024z" />
<glyph unicode="n" horiz-adv-x="1255" d="M143 0h199v621q0 110 72.5 183t195.5 73q158 0 233 -71.5t75 -225.5v-580h198v616q0 196 -114 315.5t-330 119.5q-231 0 -367 -148v121h-162v-1024z" />
<glyph unicode="o" d="M102 432v160q0 63 15 124.5t51.5 123t91 107.5t141 75t193.5 29t193.5 -29t141 -75t90.5 -107.5t51 -123t15 -124.5v-160q0 -63 -15 -124.5t-51 -123t-90.5 -107.5t-141 -75t-193.5 -29t-193.5 29t-141 75t-91 107.5t-51.5 123t-15 124.5zM303 442q0 -141 71 -224 t220 -83t220 83t71 224v140q0 144 -71 225.5t-220 81.5t-220 -81.5t-71 -225.5v-140z" />
<glyph unicode="p" horiz-adv-x="1249" d="M143 -504h199v604q54 -60 140 -93.5t182 -33.5q99 0 179.5 27.5t134 73t90.5 107t53 127.5t16 136v136q0 86 -33.5 169.5t-92.5 151t-150 109t-197 41.5q-97 0 -197.5 -41t-161.5 -107l-2 121h-160v-1528zM342 416v184q0 115 82 196t207 81q148 0 227.5 -88t79.5 -209 v-136q0 -121 -79.5 -209t-227.5 -88q-122 0 -204 79t-85 190z" />
<glyph unicode="q" horiz-adv-x="1249" d="M113 444q0 -70 16 -136t53 -127.5t90.5 -107t134 -73t179.5 -27.5q96 0 181.5 33.5t139.5 93.5v-604h199v1528h-160l-2 -121q-61 66 -161 107t-197 41q-106 0 -197 -41.5t-150 -109t-92.5 -151t-33.5 -169.5v-136zM311 444v136q0 121 79.5 209t227.5 88q125 0 207 -81 t82 -196v-184q-3 -111 -85 -190t-204 -79q-148 0 -227.5 88t-79.5 209z" />
<glyph unicode="r" horiz-adv-x="700" d="M143 0h197v666q0 86 52 137t132 51q61 0 115 -12v194q-20 6 -64 6q-107 0 -179.5 -50.5t-90.5 -108.5l-4 141h-158v-1024z" />
<glyph unicode="s" horiz-adv-x="1062" d="M92 324h182q19 -107 78.5 -152t179.5 -45q46 0 86.5 6.5t81.5 22t64.5 47.5t23.5 78q0 103 -120 122l-273 46q-57 10 -103.5 29.5t-86.5 51.5t-62 82.5t-22 114.5q0 67 24.5 124.5t71.5 102.5t124 71t175 26q194 0 304 -96t130 -255h-182q-33 193 -254 193 q-98 0 -154.5 -38.5t-56.5 -115.5q0 -110 129 -129l260 -37q126 -18 203.5 -91.5t77.5 -196.5q0 -69 -26 -123.5t-68.5 -89.5t-101.5 -57.5t-120 -32t-129 -9.5q-402 0 -436 351z" />
<glyph unicode="t" horiz-adv-x="802" d="M51 856h252v-856h199v856h250v168h-250v264h-199v-264h-252v-168z" />
<glyph unicode="u" horiz-adv-x="1255" d="M139 408q0 -196 114.5 -315.5t330.5 -119.5q230 0 366 148v-121h162v1024h-199v-621q0 -110 -72.5 -183t-195.5 -73q-158 0 -232.5 71.5t-74.5 225.5v580h-199v-616z" />
<glyph unicode="v" horiz-adv-x="978" d="M10 1024h199l287 -739l274 739h199l-379 -1024h-180z" />
<glyph unicode="w" horiz-adv-x="1466" d="M31 1024h178l209 -674l209 674h213l209 -674l208 674h179l-318 -1024h-149l-226 762l-266 -762h-129z" />
<glyph unicode="x" horiz-adv-x="1069" d="M31 0l383 526l-363 498h240l244 -334l243 334h240l-365 -498l385 -526h-239l-264 362l-265 -362h-239z" />
<glyph unicode="y" horiz-adv-x="1146" d="M31 1024h221l348 -756l309 756h207l-620 -1528h-207l219 539z" />
<glyph unicode="z" horiz-adv-x="931" d="M76 0h780v168h-549l539 678v178h-762v-168h528l-536 -678v-178z" />
<glyph unicode="{" horiz-adv-x="753" d="M51 532q81 -33 129.5 -84.5t48.5 -140.5v-336q0 -208 58.5 -304.5t212.5 -96.5h182v141h-100q-101 0 -133.5 60.5t-32.5 201.5v340q0 205 -178 275q178 70 178 274v307q0 141 32.5 202t133.5 61h100v141h-141q-92 0 -153.5 -25t-96 -78.5t-48.5 -124.5t-14 -174v-303 q0 -89 -48.5 -140.5t-129.5 -84.5v-111z" />
<glyph unicode="|" horiz-adv-x="471" d="M143 -504v2200h185v-2200h-185z" />
<glyph unicode="}" horiz-adv-x="753" d="M51 -289h101q101 0 133 60.5t32 201.5v340q0 204 179 275q-179 71 -179 274v307q0 141 -32 202t-133 61h-101v141h182q154 0 212.5 -97t58.5 -305v-303q0 -89 48.5 -140.5t129.5 -84.5v-111q-81 -33 -129.5 -84.5t-48.5 -140.5v-336q0 -208 -58.5 -304.5t-212.5 -96.5 h-182v141z" />
<glyph unicode="~" horiz-adv-x="1378" d="M123 451q6 158 76 236.5t198 78.5q71 0 148.5 -22.5t131.5 -49t115 -49t103 -22.5q39 0 68.5 10.5t45 24t26 37t14 39t6.5 40.5h172q1 -59 -15.5 -115t-50 -103.5t-91.5 -76t-132 -28.5q-79 0 -155.5 21t-127.5 46.5t-120 46.5t-134 21q-111 0 -114 -135h-164z" />
<glyph unicode="&#xa1;" horiz-adv-x="509" d="M154 0l20 1186h162l20 -1186h-202zM156 1352v194h198v-194h-198z" />
<glyph unicode="&#xa2;" horiz-adv-x="1159" d="M100 418v182q0 55 11 109.5t40.5 114t74.5 106t120 79.5t170 40v145h127v-145q94 -8 167 -39t117 -73t74 -97.5t42 -105.5t16 -105h-193q-10 99 -64.5 167.5t-158.5 86.5v-742q104 18 158.5 86.5t64.5 165.5h193q-3 -54 -15 -104t-41.5 -105t-74 -97t-118 -73t-167.5 -39 v-133h-127v133q-95 7 -170 39.5t-120 78t-74.5 104t-40.5 112.5t-11 109zM301 424q0 -105 55.5 -185.5t159.5 -99.5v746q-104 -19 -159.5 -99.5t-55.5 -185.5v-176z" />
<glyph unicode="&#xa3;" horiz-adv-x="1275" d="M154 0v168h153q118 91 163.5 209t2.5 225h-262v160h149q-76 88 -124 178t-48 195q0 200 126 319t366 119q491 0 502 -504h-183q-11 162 -84.5 247t-234.5 85q-148 0 -218.5 -72t-70.5 -194q0 -56 23 -112t48.5 -91t71 -89.5t64.5 -80.5h414v-160h-342q24 -114 -14.5 -238 t-131.5 -196h650v-168h-1020z" />
<glyph unicode="&#xa4;" horiz-adv-x="1280" d="M133 1100l123 125l119 -140q130 84 264 84q136 0 260 -82l121 140l127 -127l-137 -121q82 -125 82 -262q0 -138 -82 -262l133 -119l-123 -123l-121 129q-129 -78 -260 -78t-262 80l-119 -131l-123 125l129 121q-78 129 -78 258q0 131 82 260zM350 717q0 -123 83 -206 t206 -83q122 0 206.5 83.5t84.5 205.5q0 121 -85 206t-206 85q-122 0 -205.5 -84.5t-83.5 -206.5z" />
<glyph unicode="&#xa5;" horiz-adv-x="1316" d="M39 1546h223l393 -667l396 667h223l-412 -688h250v-168h-350l-4 -6v-182h354v-168h-354v-334h-203v334h-350v168h350v182l-4 6h-346v168h246z" />
<glyph unicode="&#xa6;" horiz-adv-x="512" d="M143 422h226v-926h-226v926zM143 770v926h226v-926h-226z" />
<glyph unicode="&#xa7;" horiz-adv-x="1386" d="M143 571q0 -65 26.5 -119t59 -88.5t100.5 -71.5t109.5 -54t128.5 -50q14 -5 21 -8q28 -12 70.5 -28t70.5 -26.5t62.5 -26.5t56.5 -32.5t42 -38.5t29 -50t9 -62q-2 -120 -68 -188t-207 -68q-75 0 -127.5 19.5t-85 60t-50 89.5t-28.5 120h-186q21 -453 477 -453 q123 0 214.5 34t145.5 96t80.5 141.5t26.5 177.5q0 128 -65 215q98 60 143 140.5t45 197.5q0 65 -26.5 119t-59 88.5t-100.5 71.5t-109.5 54.5t-127.5 49.5q-14 5 -21 8q-28 12 -70.5 28t-70.5 26.5t-62.5 26.5t-56.5 32.5t-42 38.5t-29 50t-9 62q2 120 67.5 188t206.5 68 q75 0 127.5 -19.5t85 -60t50 -89.5t28.5 -120h186q-21 453 -477 453q-123 0 -214.5 -34t-145.5 -96t-80.5 -141.5t-26.5 -177.5q0 -128 64 -215q-97 -60 -142 -141t-45 -197zM340 606q0 79 28 127.5t83 85.5q66 -37 200 -82q194 -68 261 -104q134 -74 135 -170 q0 -79 -28 -128t-85 -85q-57 30 -199 82q-194 68 -261 105q-133 73 -134 169z" />
<glyph unicode="&#xa8;" d="M244 1210v199h207v-199h-207zM737 1210v199h207v-199h-207z" />
<glyph unicode="&#xa9;" horiz-adv-x="1796" d="M92 766q0 164 63.5 313t171 257.5t257 172.5t313.5 64q218 0 404 -108.5t294.5 -294.5t108.5 -404q0 -164 -64 -313.5t-172.5 -257t-257.5 -171t-313 -63.5t-313.5 63.5t-257 171t-171 257t-63.5 313.5zM236 766q0 -178 88 -330t240.5 -241t332.5 -89q178 0 330.5 89 t242 241t89.5 330q0 179 -89.5 331.5t-242 241t-330.5 88.5q-135 0 -257.5 -52.5t-211 -141t-140.5 -210.5t-52 -257zM465 690v168q0 54 11 107.5t40.5 110.5t74.5 100t120 70.5t170 27.5q98 0 174.5 -25t121.5 -63.5t75.5 -92.5t42.5 -103t16 -105h-137 q-10 115 -81.5 187.5t-211.5 72.5q-130 0 -200.5 -84t-70.5 -203v-162q0 -121 70 -204.5t201 -83.5q72 0 127.5 21t89.5 58t52.5 82t23.5 99h137q-3 -55 -15 -104t-42.5 -103t-76 -92.5t-122 -64t-174.5 -25.5q-95 0 -170 27.5t-120 69.5t-74.5 98.5t-40.5 109t-11 106.5z " />
<glyph unicode="&#xaa;" horiz-adv-x="813" d="M66 487q11 103 97 176.5t224 73.5q143 0 239.5 -72t96.5 -167v-498h-121l-4 70q-55 -40 -130 -64t-149 -24q-106 0 -174.5 52.5t-68.5 162.5q0 100 83 155.5t208 63.5l217 14v62q0 56 -61.5 93.5t-135.5 37.5q-75 0 -128.5 -35t-63.5 -101h-129zM209 190q0 -43 35 -66.5 t94 -23.5q119 0 246 84v138l-203 -15q-34 -4 -55.5 -8t-46 -12.5t-38 -20t-23 -31t-9.5 -45.5z" />
<glyph unicode="&#xab;" horiz-adv-x="1107" d="M133 510l268 354h162l-225 -354l225 -354h-162zM524 510l269 354h161l-225 -354l225 -354h-161z" />
<glyph unicode="&#xac;" horiz-adv-x="1169" d="M102 874h797v-303h148v451h-945v-148z" />
<glyph unicode="&#xad;" horiz-adv-x="1093" d="M143 502h807v168h-807v-168z" />
<glyph unicode="&#xae;" horiz-adv-x="1746" d="M92 766q0 164 63.5 313t171 257.5t257 172.5t313.5 64q218 0 404 -108.5t294.5 -294.5t108.5 -404q0 -164 -64 -313.5t-172.5 -257t-257.5 -171t-313 -63.5t-313.5 63.5t-257 171t-171 257t-63.5 313.5zM236 766q0 -178 88 -330t240.5 -241t332.5 -89q178 0 330.5 89 t242 241t89.5 330q0 179 -89.5 331.5t-242 241t-330.5 88.5q-135 0 -257.5 -52.5t-211 -141t-140.5 -210.5t-52 -257zM590 287v970h291q99 0 170.5 -21.5t108 -51t57.5 -73.5t25.5 -75.5t4.5 -70.5q0 -30 -2.5 -54t-13 -59t-29 -61.5t-53.5 -52.5t-84 -42l184 -409h-135 l-168 383h-229v-383h-127zM717 780h160q130 0 186.5 45.5t56.5 139.5t-55.5 139t-183.5 45h-164v-369z" />
<glyph unicode="&#xaf;" horiz-adv-x="800" d="M41 1210v152h719v-152h-719z" />
<glyph unicode="&#xb0;" horiz-adv-x="860" d="M113 1116q0 -132 92.5 -224.5t224.5 -92.5t225 92.5t93 224.5t-93 225t-225 93t-224.5 -93t-92.5 -225zM250 1116q0 75 52.5 127.5t127.5 52.5t127.5 -52.5t52.5 -127.5t-52.5 -127.5t-127.5 -52.5t-127.5 52.5t-52.5 127.5z" />
<glyph unicode="&#xb1;" horiz-adv-x="1132" d="M113 0v168h907v-168h-907zM133 836v168h348v368h168v-368h350v-168h-350v-371h-168v371h-348z" />
<glyph unicode="&#xb2;" horiz-adv-x="638" d="M129 1325h94q20 154 158 154q87 0 129.5 -47t42.5 -107q0 -33 -17.5 -66.5t-35.5 -52t-45 -41.5l-297 -247v-89h483v84h-356l221 177q27 21 46.5 39.5t44.5 49t38.5 68t13.5 78.5q0 96 -69.5 165t-198.5 69q-116 0 -179 -68.5t-73 -165.5z" />
<glyph unicode="&#xb3;" horiz-adv-x="675" d="M172 1044h94q12 -75 62.5 -114t122.5 -39q76 -2 125 37.5t49 107.5v37q0 61 -49 97t-125 36h-84v74l217 184h-398v82h508v-100l-192 -164q87 0 153 -56t66 -147v-53q0 -97 -73 -157t-191 -60q-128 0 -203.5 66t-81.5 169z" />
<glyph unicode="&#xb4;" horiz-adv-x="458" d="M102 1188l187 358h190l-186 -358h-191z" />
<glyph unicode="&#xb5;" horiz-adv-x="1273" d="M113 -504h241v516q86 -39 205 -39q231 0 367 148l2 -121h202v1024h-239v-633q-13 -91 -81 -147t-189 -56q-129 0 -198 66t-69 170v600h-239z" />
<glyph unicode="&#xb6;" horiz-adv-x="1515" d="M143 1206q0 141 98.5 240.5t239.5 99.5h912v-198h-156v-1665h-199v1665h-358v-1665h-199v1185q-141 0 -239.5 98.5t-98.5 239.5z" />
<glyph unicode="&#xb7;" horiz-adv-x="1538" d="M625 512v236h239v-236h-239z" />
<glyph unicode="&#xb8;" horiz-adv-x="473" d="M41 -369h164q49 0 72.5 17.5t23.5 58.5q0 42 -23.5 60t-72.5 18h-154v215h137v-80h11q233 0 233 -213q0 -211 -233 -211h-158v135z" />
<glyph unicode="&#xb9;" horiz-adv-x="380" d="M68 1464v82h219v-717h-94v635h-125z" />
<glyph unicode="&#xba;" horiz-adv-x="837" d="M72 305v113q0 44 10.5 87t36 86.5t64 76t99.5 53t136 20.5q76 0 137 -20.5t99.5 -53t64.5 -76t36.5 -86.5t10.5 -87v-113q0 -45 -10.5 -88t-36.5 -86.5t-64.5 -76t-99.5 -52.5t-137 -20q-93 0 -163.5 30t-108.5 79.5t-56 103t-18 110.5zM213 311q0 -99 50.5 -157 t154.5 -58q106 0 156.5 58t50.5 157v99q0 102 -50.5 159.5t-156.5 57.5q-105 0 -155 -58t-50 -159v-99z" />
<glyph unicode="&#xbb;" horiz-adv-x="1107" d="M133 156l225 354l-225 354h162l268 -354l-268 -354h-162zM524 156l226 354l-226 354h162l268 -354l-268 -354h-162z" />
<glyph unicode="&#xbc;" horiz-adv-x="1316" d="M68 1464v82h219v-717h-94v635h-125zM143 0l713 1546h123l-713 -1546h-123zM637 160v82l344 473h98v-473h90v-82h-90v-162h-94v162h-348zM735 242h250v344z" />
<glyph unicode="&#xbd;" horiz-adv-x="1443" d="M68 1464v82h219v-717h-94v635h-125zM143 0l713 1546h123l-713 -1546h-123zM735 500h94q20 153 160 153q87 0 129.5 -47t42.5 -108q0 -33 -18 -66.5t-34.5 -50t-45.5 -43.5l-301 -250v-88h487v84h-358l221 176q28 22 48 41t45 49.5t38.5 68.5t13.5 79q0 97 -69.5 167 t-198.5 70q-118 0 -181.5 -69.5t-72.5 -165.5z" />
<glyph unicode="&#xbe;" horiz-adv-x="1662" d="M170 1055h94q12 -75 60.5 -113.5t119.5 -40.5q75 0 123.5 38.5t48.5 104.5v37q0 59 -48 95t-124 36h-79v72l213 184h-392v80h500v-100l-188 -160q83 0 148 -56t65 -145v-51q0 -97 -71 -156t-189 -59q-125 0 -200 65.5t-81 168.5zM489 0l713 1546h123l-713 -1546h-123z M983 160v82l344 473h98v-473h91v-82h-91v-162h-94v162h-348zM1081 242h250v344z" />
<glyph unicode="&#xbf;" horiz-adv-x="1316" d="M133 436q0 207 133 331t357 124v268h180v-424h-150q-160 0 -237.5 -79.5t-77.5 -215.5q0 -59 17 -110t53.5 -93.5t101.5 -67t152 -24.5q154 0 231 81.5t96 250.5h195q-6 -78 -24 -145.5t-57 -135t-96 -115.5t-146.5 -78t-203.5 -30q-129 0 -230.5 37t-165 101t-96 147 t-32.5 178zM606 1339v207h211v-207h-211z" />
<glyph unicode="&#xc0;" horiz-adv-x="1251" d="M49 0l473 1546h207l473 -1546h-201l-127 430h-495l-129 -430h-201zM356 2073h191l186 -359h-190zM430 600h391l-194 670z" />
<glyph unicode="&#xc1;" horiz-adv-x="1251" d="M49 0l473 1546h207l473 -1546h-201l-127 430h-495l-129 -430h-201zM430 600h391l-194 670zM500 1710l186 358h191l-187 -358h-190z" />
<glyph unicode="&#xc2;" horiz-adv-x="1251" d="M49 0l473 1546h207l473 -1546h-201l-127 430h-495l-129 -430h-201zM319 1716l207 359h201l207 -359h-182l-125 230l-125 -230h-183zM430 600h391l-194 670z" />
<glyph unicode="&#xc3;" horiz-adv-x="1251" d="M49 0l473 1546h207l473 -1546h-201l-127 430h-495l-129 -430h-201zM217 1802l64 -102q86 90 186 90q34 0 77 -19t102.5 -38t135.5 -19q94 0 157 42.5t91 94.5l-84 101q-85 -97 -194 -97q-35 0 -71 14t-63 30.5t-70.5 30.5t-90.5 14q-155 0 -240 -142zM430 600h391 l-194 670z" />
<glyph unicode="&#xc4;" horiz-adv-x="1251" d="M49 0l473 1546h207l473 -1546h-201l-127 430h-495l-129 -430h-201zM276 1733v198h207v-198h-207zM430 600h391l-194 670zM770 1733v198h207v-198h-207z" />
<glyph unicode="&#xc5;" horiz-adv-x="1251" d="M49 0l473 1546h207l473 -1546h-201l-127 430h-495l-129 -430h-201zM430 600h391l-194 670zM446 1845q0 71 50 121.5t122 50.5q71 0 122 -51t51 -121q0 -72 -51 -122t-122 -50q-72 0 -122 50t-50 122zM537 1845q0 -34 23.5 -58t57.5 -24t57 24t23 58t-23 57t-57 23 t-57.5 -23t-23.5 -57z" />
<glyph unicode="&#xc6;" horiz-adv-x="1859" d="M47 0l512 1546h1178v-176h-846v-475h780v-176h-780v-543h846v-176h-1049v410h-317l-138 -410h-186zM438 580h250v794z" />
<glyph unicode="&#xc7;" horiz-adv-x="1474" d="M109 651v234q0 66 4 122t19 129.5t40 131t72 117t110 99t158 64.5t213 25q115 0 209.5 -21t160 -55.5t115 -85.5t78.5 -103t48 -117t26.5 -119.5t9.5 -117.5h-205q-3 73 -14.5 133t-42 120t-78 101.5t-126 67t-181.5 25.5q-102 0 -178 -29.5t-119.5 -76t-70.5 -114.5 t-35.5 -133t-8.5 -145v-260q0 -54 4 -100.5t16 -98.5t31 -93.5t51 -80.5t74 -65.5t102.5 -42t133.5 -15.5q121 0 207.5 34t134.5 95t70.5 129t29.5 154h205q-4 -58 -12 -108.5t-26.5 -109t-45.5 -106.5t-71.5 -94.5t-101 -79.5t-137 -56.5t-177.5 -29.5v-55h10 q233 0 233 -213q0 -211 -233 -211h-158v135h164q49 0 72.5 17.5t23.5 58.5q0 42 -23.5 60t-72.5 18h-153v190q-106 6 -191.5 34t-142.5 67.5t-99 97.5t-65 113t-36.5 124.5t-17 122.5t-3.5 117z" />
<glyph unicode="&#xc8;" horiz-adv-x="1325" d="M154 0v1546h1048v-172h-846v-491h781v-168h-781v-543h846v-172h-1048zM393 2073h191l186 -359h-190z" />
<glyph unicode="&#xc9;" horiz-adv-x="1325" d="M154 0v1546h1048v-172h-846v-491h781v-168h-781v-543h846v-172h-1048zM537 1710l186 358h190l-186 -358h-190z" />
<glyph unicode="&#xca;" horiz-adv-x="1325" d="M154 0v1546h1048v-172h-846v-491h781v-168h-781v-543h846v-172h-1048zM356 1716l207 359h201l207 -359h-183l-124 230l-125 -230h-183z" />
<glyph unicode="&#xcb;" horiz-adv-x="1325" d="M154 0v1546h1048v-172h-846v-491h781v-168h-781v-543h846v-172h-1048zM313 1733v198h207v-198h-207zM807 1733v198h207v-198h-207z" />
<glyph unicode="&#xcc;" horiz-adv-x="509" d="M-14 2073h190l186 -359h-190zM154 0v1546h202v-1546h-202z" />
<glyph unicode="&#xcd;" horiz-adv-x="509" d="M129 1710l186 358h191l-187 -358h-190zM154 0v1546h202v-1546h-202z" />
<glyph unicode="&#xce;" horiz-adv-x="509" d="M-51 1716l207 359h200l207 -359h-182l-125 230l-125 -230h-182zM154 0v1546h202v-1546h-202z" />
<glyph unicode="&#xcf;" horiz-adv-x="509" d="M-94 1733v198h207v-198h-207zM154 0v1546h202v-1546h-202zM399 1733v198h207v-198h-207z" />
<glyph unicode="&#xd0;" horiz-adv-x="1505" d="M20 690v168h244v688h484q98 0 181.5 -14.5t145 -38t111 -60.5t82.5 -75.5t57.5 -88.5t38 -94.5t21.5 -100t10 -97t2 -92.5v-223q0 -67 -4 -120.5t-19 -125.5t-41.5 -126.5t-75 -111.5t-115.5 -94t-167.5 -60.5t-226.5 -23.5h-484v690h-244zM467 174h281q111 0 193.5 27.5 t129.5 70t75 107t37 125.5t9 139v260q0 80 -9 142t-37 126.5t-75 106.5t-129 69t-194 27h-281v-516h293v-168h-293v-516z" />
<glyph unicode="&#xd1;" horiz-adv-x="1376" d="M154 0v1546h172l694 -1116v1116h203v-1546h-172l-695 1122v-1122h-202zM279 1802l63 -102q86 90 186 90q28 0 62 -12t63 -26t80 -26t111 -12q94 0 157 42.5t91 94.5l-84 101q-85 -97 -195 -97q-35 0 -71 14t-63 30.5t-70.5 30.5t-90.5 14q-154 0 -239 -142z" />
<glyph unicode="&#xd2;" horiz-adv-x="1490" d="M109 606v334q0 134 35.5 245.5t109 200t198.5 138t293 49.5q134 0 242 -33t181 -90t121.5 -138t70.5 -173.5t22 -198.5v-334q0 -106 -22 -198.5t-70.5 -173.5t-121.5 -138t-181 -90t-242 -33q-168 0 -293 49.5t-198.5 138t-109 200t-35.5 245.5zM311 633 q0 -239 102.5 -363.5t331.5 -124.5q228 0 331.5 125t103.5 363v280q0 238 -103.5 363t-331.5 125q-229 0 -331.5 -124.5t-102.5 -363.5v-280zM475 2073h191l186 -359h-190z" />
<glyph unicode="&#xd3;" horiz-adv-x="1490" d="M109 606v334q0 134 35.5 245.5t109 200t198.5 138t293 49.5q134 0 242 -33t181 -90t121.5 -138t70.5 -173.5t22 -198.5v-334q0 -106 -22 -198.5t-70.5 -173.5t-121.5 -138t-181 -90t-242 -33q-168 0 -293 49.5t-198.5 138t-109 200t-35.5 245.5zM311 633 q0 -239 102.5 -363.5t331.5 -124.5q228 0 331.5 125t103.5 363v280q0 238 -103.5 363t-331.5 125q-229 0 -331.5 -124.5t-102.5 -363.5v-280zM618 1710l187 358h190l-186 -358h-191z" />
<glyph unicode="&#xd4;" horiz-adv-x="1490" d="M109 606v334q0 134 35.5 245.5t109 200t198.5 138t293 49.5q134 0 242 -33t181 -90t121.5 -138t70.5 -173.5t22 -198.5v-334q0 -106 -22 -198.5t-70.5 -173.5t-121.5 -138t-181 -90t-242 -33q-168 0 -293 49.5t-198.5 138t-109 200t-35.5 245.5zM311 633 q0 -239 102.5 -363.5t331.5 -124.5q228 0 331.5 125t103.5 363v280q0 238 -103.5 363t-331.5 125q-229 0 -331.5 -124.5t-102.5 -363.5v-280zM438 1716l207 359h201l207 -359h-183l-125 230l-124 -230h-183z" />
<glyph unicode="&#xd5;" horiz-adv-x="1490" d="M109 606v334q0 134 35.5 245.5t109 200t198.5 138t293 49.5q134 0 242 -33t181 -90t121.5 -138t70.5 -173.5t22 -198.5v-334q0 -106 -22 -198.5t-70.5 -173.5t-121.5 -138t-181 -90t-242 -33q-168 0 -293 49.5t-198.5 138t-109 200t-35.5 245.5zM311 633 q0 -239 102.5 -363.5t331.5 -124.5q228 0 331.5 125t103.5 363v280q0 238 -103.5 363t-331.5 125q-229 0 -331.5 -124.5t-102.5 -363.5v-280zM336 1802l63 -102q86 90 187 90q34 0 77 -19t102.5 -38t135.5 -19q94 0 157 42.5t91 94.5l-84 101q-85 -97 -195 -97q-35 0 -71 14 t-63 30.5t-70.5 30.5t-90.5 14q-154 0 -239 -142z" />
<glyph unicode="&#xd6;" horiz-adv-x="1490" d="M109 606v334q0 134 35.5 245.5t109 200t198.5 138t293 49.5q134 0 242 -33t181 -90t121.5 -138t70.5 -173.5t22 -198.5v-334q0 -106 -22 -198.5t-70.5 -173.5t-121.5 -138t-181 -90t-242 -33q-168 0 -293 49.5t-198.5 138t-109 200t-35.5 245.5zM311 633 q0 -239 102.5 -363.5t331.5 -124.5q228 0 331.5 125t103.5 363v280q0 238 -103.5 363t-331.5 125q-229 0 -331.5 -124.5t-102.5 -363.5v-280zM395 1733v198h207v-198h-207zM889 1733v198h207v-198h-207z" />
<glyph unicode="&#xd7;" horiz-adv-x="1093" d="M137 395l119 -119l289 289l293 -291l118 119l-292 291l292 291l-118 119l-293 -291l-289 291l-119 -119l289 -291z" />
<glyph unicode="&#xd8;" horiz-adv-x="1497" d="M109 0l129 188q-123 159 -123 418v334q0 107 21.5 199t70 173t121.5 138t181 90t243 33q222 0 374 -90l43 63h203l-119 -174q136 -163 136 -432v-334q0 -106 -22 -198.5t-70.5 -173.5t-121.5 -138t-181 -90t-242 -33q-235 0 -392 101l-49 -74h-202zM317 633 q0 -157 43 -264l662 962q-106 70 -270 70q-230 0 -332.5 -124.5t-102.5 -363.5v-280zM467 225q107 -80 285 -80q228 0 331 125t103 363v280q0 180 -51 285z" />
<glyph unicode="&#xd9;" horiz-adv-x="1466" d="M137 569q0 -66 6 -123t22.5 -119.5t43 -112.5t71.5 -96t103.5 -77t142.5 -49.5t187 -18.5q110 0 200 18.5t153 49.5t111 77t76 96t46 112.5t24 119.5t6 123v977h-205v-944q0 -82 -9 -144.5t-35 -123.5t-70.5 -100t-119.5 -63t-177 -24q-92 0 -159.5 24t-107.5 63t-64 100 t-32 123.5t-8 144.5v944l-205 2v-979zM463 2073h190l187 -359h-191z" />
<glyph unicode="&#xda;" horiz-adv-x="1466" d="M137 569q0 -66 6 -123t22.5 -119.5t43 -112.5t71.5 -96t103.5 -77t142.5 -49.5t187 -18.5q110 0 200 18.5t153 49.5t111 77t76 96t46 112.5t24 119.5t6 123v977h-205v-944q0 -82 -9 -144.5t-35 -123.5t-70.5 -100t-119.5 -63t-177 -24q-92 0 -159.5 24t-107.5 63t-64 100 t-32 123.5t-8 144.5v944l-205 2v-979zM606 1710l187 358h190l-186 -358h-191z" />
<glyph unicode="&#xdb;" horiz-adv-x="1466" d="M137 569q0 -66 6 -123t22.5 -119.5t43 -112.5t71.5 -96t103.5 -77t142.5 -49.5t187 -18.5q110 0 200 18.5t153 49.5t111 77t76 96t46 112.5t24 119.5t6 123v977h-205v-944q0 -82 -9 -144.5t-35 -123.5t-70.5 -100t-119.5 -63t-177 -24q-92 0 -159.5 24t-107.5 63t-64 100 t-32 123.5t-8 144.5v944l-205 2v-979zM426 1716l207 359h201l206 -359h-182l-125 230l-125 -230h-182z" />
<glyph unicode="&#xdc;" horiz-adv-x="1466" d="M137 569q0 -66 6 -123t22.5 -119.5t43 -112.5t71.5 -96t103.5 -77t142.5 -49.5t187 -18.5q110 0 200 18.5t153 49.5t111 77t76 96t46 112.5t24 119.5t6 123v977h-205v-944q0 -82 -9 -144.5t-35 -123.5t-70.5 -100t-119.5 -63t-177 -24q-92 0 -159.5 24t-107.5 63t-64 100 t-32 123.5t-8 144.5v944l-205 2v-979zM383 1733v198h207v-198h-207zM877 1733v198h206v-198h-206z" />
<glyph unicode="&#xdd;" horiz-adv-x="1275" d="M20 1546h224l393 -667l395 667h223l-516 -862v-684h-202v684zM512 1710l186 358h191l-187 -358h-190z" />
<glyph unicode="&#xde;" horiz-adv-x="1298" d="M154 0v1546h204v-272h318q119 0 211.5 -25.5t150.5 -68t95 -103.5t52 -126.5t15 -143.5t-15 -143.5t-52 -126.5t-95.5 -103.5t-151.5 -68t-214 -25.5h-316v-340h-202zM356 512h295q181 0 263.5 72.5t82.5 222.5t-82 222.5t-260 72.5h-299v-590z" />
<glyph unicode="&#xdf;" horiz-adv-x="1249" d="M154 0v1094q0 235 106 357t342 122q105 0 190 -24t141.5 -65.5t94.5 -98.5t55 -120.5t17 -134.5q0 -123 -56 -209.5t-141 -132.5q31 -6 69 -30t76 -64.5t63.5 -107t25.5 -144.5q0 -103 -28 -187.5t-84.5 -150t-150.5 -101.5t-219 -36q-38 0 -97 11.5t-85 25.5l39 160 q17 -7 67 -15t76 -8q277 0 277 301q0 35 -8 68.5t-28 67.5t-51 59t-81 41t-113 16h-186v178h174q70 0 122 22.5t79.5 61t40 81t12.5 89.5q0 41 -6.5 76.5t-25 73t-47.5 64.5t-79.5 44t-116.5 17t-115 -19.5t-76.5 -49t-44 -73t-21.5 -82.5t-5 -87v-1090h-202z" />
<glyph unicode="&#xe0;" horiz-adv-x="1161" d="M92 696q16 146 140 250.5t319 104.5q204 0 341.5 -103t137.5 -239v-709h-170l-6 98q-77 -57 -184.5 -91t-212.5 -34q-72 0 -132.5 17t-110 52.5t-77.5 96.5t-28 142q0 74 33.5 132.5t91.5 95.5t131.5 57.5t158.5 25.5l307 20v88q0 54 -42.5 98.5t-105.5 67.5t-130 23 q-107 0 -183.5 -49.5t-90.5 -143.5h-187zM297 272q0 -62 51 -95.5t135 -33.5q168 0 348 119v197l-288 -21q-48 -6 -79 -11.5t-66 -17.5t-55 -28.5t-33 -44t-13 -64.5zM311 1550h191l186 -358h-190z" />
<glyph unicode="&#xe1;" horiz-adv-x="1161" d="M92 696q16 146 140 250.5t319 104.5q204 0 341.5 -103t137.5 -239v-709h-170l-6 98q-77 -57 -184.5 -91t-212.5 -34q-72 0 -132.5 17t-110 52.5t-77.5 96.5t-28 142q0 74 33.5 132.5t91.5 95.5t131.5 57.5t158.5 25.5l307 20v88q0 54 -42.5 98.5t-105.5 67.5t-130 23 q-107 0 -183.5 -49.5t-90.5 -143.5h-187zM297 272q0 -62 51 -95.5t135 -33.5q168 0 348 119v197l-288 -21q-48 -6 -79 -11.5t-66 -17.5t-55 -28.5t-33 -44t-13 -64.5zM455 1188l186 358h190l-186 -358h-190z" />
<glyph unicode="&#xe2;" horiz-adv-x="1161" d="M92 696q16 146 140 250.5t319 104.5q204 0 341.5 -103t137.5 -239v-709h-170l-6 98q-77 -57 -184.5 -91t-212.5 -34q-72 0 -132.5 17t-110 52.5t-77.5 96.5t-28 142q0 74 33.5 132.5t91.5 95.5t131.5 57.5t158.5 25.5l307 20v88q0 54 -42.5 98.5t-105.5 67.5t-130 23 q-107 0 -183.5 -49.5t-90.5 -143.5h-187zM274 1194l207 358h201l207 -358h-182l-125 229l-125 -229h-183zM297 272q0 -62 51 -95.5t135 -33.5q168 0 348 119v197l-288 -21q-48 -6 -79 -11.5t-66 -17.5t-55 -28.5t-33 -44t-13 -64.5z" />
<glyph unicode="&#xe3;" horiz-adv-x="1161" d="M92 696q16 146 140 250.5t319 104.5q204 0 341.5 -103t137.5 -239v-709h-170l-6 98q-77 -57 -184.5 -91t-212.5 -34q-72 0 -132.5 17t-110 52.5t-77.5 96.5t-28 142q0 74 33.5 132.5t91.5 95.5t131.5 57.5t158.5 25.5l307 20v88q0 54 -42.5 98.5t-105.5 67.5t-130 23 q-107 0 -183.5 -49.5t-90.5 -143.5h-187zM172 1280l64 -102q86 90 186 90q34 0 77 -19t102.5 -38t135.5 -19q94 0 157 42.5t91 94.5l-84 101q-85 -97 -194 -97q-35 0 -71 13.5t-63 30.5t-70.5 30.5t-90.5 13.5q-156 0 -240 -141zM297 272q0 -62 51 -95.5t135 -33.5 q168 0 348 119v197l-288 -21q-48 -6 -79 -11.5t-66 -17.5t-55 -28.5t-33 -44t-13 -64.5z" />
<glyph unicode="&#xe4;" horiz-adv-x="1161" d="M92 696q16 146 140 250.5t319 104.5q204 0 341.5 -103t137.5 -239v-709h-170l-6 98q-77 -57 -184.5 -91t-212.5 -34q-72 0 -132.5 17t-110 52.5t-77.5 96.5t-28 142q0 74 33.5 132.5t91.5 95.5t131.5 57.5t158.5 25.5l307 20v88q0 54 -42.5 98.5t-105.5 67.5t-130 23 q-107 0 -183.5 -49.5t-90.5 -143.5h-187zM231 1210v199h207v-199h-207zM297 272q0 -62 51 -95.5t135 -33.5q168 0 348 119v197l-288 -21q-48 -6 -79 -11.5t-66 -17.5t-55 -28.5t-33 -44t-13 -64.5zM725 1210v199h207v-199h-207z" />
<glyph unicode="&#xe5;" horiz-adv-x="1161" d="M92 696q16 146 140 250.5t319 104.5q204 0 341.5 -103t137.5 -239v-709h-170l-6 98q-77 -57 -184.5 -91t-212.5 -34q-72 0 -132.5 17t-110 52.5t-77.5 96.5t-28 142q0 74 33.5 132.5t91.5 95.5t131.5 57.5t158.5 25.5l307 20v88q0 54 -42.5 98.5t-105.5 67.5t-130 23 q-107 0 -183.5 -49.5t-90.5 -143.5h-187zM297 272q0 -62 51 -95.5t135 -33.5q168 0 348 119v197l-288 -21q-48 -6 -79 -11.5t-66 -17.5t-55 -28.5t-33 -44t-13 -64.5zM401 1323q0 71 50 121.5t122 50.5q71 0 121.5 -50.5t50.5 -121.5q0 -72 -50.5 -122t-121.5 -50 q-72 0 -122 50t-50 122zM492 1323q0 -34 23.5 -58t57.5 -24t57 24t23 58t-23 57t-57 23t-57.5 -23t-23.5 -57z" />
<glyph unicode="&#xe6;" horiz-adv-x="1914" d="M92 696q16 146 140 250.5t319 104.5q125 0 229.5 -42t169.5 -112q136 154 377 154q107 0 194 -31t141 -80.5t90.5 -114t51.5 -128t15 -126.5v-151h-789q9 -126 87.5 -205.5t215.5 -79.5q98 0 165 42.5t99 115.5h209q-20 -64 -57 -119t-93 -101.5t-139 -73t-184 -26.5 q-259 0 -399 179q-103 -88 -227.5 -133.5t-249.5 -45.5q-72 0 -132.5 17t-110 52.5t-77.5 96.5t-28 142q0 74 33.5 132.5t91.5 95.5t131.5 57.5t158.5 25.5l307 20v88q0 54 -42.5 98.5t-105.5 67.5t-130 23q-107 0 -183.5 -49.5t-90.5 -143.5h-187zM297 272q0 -62 51 -95.5 t135 -33.5q168 0 348 119v197l-288 -21q-48 -6 -79 -11.5t-66 -17.5t-55 -28.5t-33 -44t-13 -64.5zM1030 584h594q-6 136 -81 220.5t-216 84.5q-142 0 -217 -84.5t-80 -220.5z" />
<glyph unicode="&#xe7;" horiz-adv-x="1159" d="M100 418v182q0 58 12.5 115.5t45.5 119.5t84 109t136 77t193 30q111 0 197.5 -27.5t138.5 -69.5t86 -100.5t48 -112t18 -112.5h-193q-12 115 -83.5 187.5t-211.5 72.5q-130 0 -200 -84.5t-70 -204.5v-176q0 -120 70 -204.5t200 -84.5q140 0 211.5 72.5t83.5 185.5h193 q-3 -54 -15 -104t-41.5 -105t-74 -97t-118 -73t-167.5 -39v-55h10q234 0 234 -213q0 -211 -234 -211h-157v135h163q49 0 73 17.5t24 58.5q0 42 -24 60t-73 18h-153v190q-93 9 -165.5 42t-117 78.5t-73 103.5t-39.5 111.5t-11 107.5z" />
<glyph unicode="&#xe8;" horiz-adv-x="1181" d="M102 453v118q0 63 15 126.5t51.5 128t90.5 114t141 80.5t194 31t193.5 -31t141 -80.5t91 -114t51 -128t14.5 -126.5v-151h-788q9 -126 87.5 -205.5t215.5 -79.5q98 0 165 42.5t99 115.5h209q-20 -64 -57 -119t-93 -101.5t-139 -73t-184 -26.5q-107 0 -194.5 31 t-142.5 80.5t-92.5 114t-53 128t-15.5 126.5zM297 584h594q-6 136 -81 220.5t-216 84.5q-142 0 -217 -84.5t-80 -220.5zM322 1550h190l186 -358h-190z" />
<glyph unicode="&#xe9;" horiz-adv-x="1181" d="M102 453v118q0 63 15 126.5t51.5 128t90.5 114t141 80.5t194 31t193.5 -31t141 -80.5t91 -114t51 -128t14.5 -126.5v-151h-788q9 -126 87.5 -205.5t215.5 -79.5q98 0 165 42.5t99 115.5h209q-20 -64 -57 -119t-93 -101.5t-139 -73t-184 -26.5q-107 0 -194.5 31 t-142.5 80.5t-92.5 114t-53 128t-15.5 126.5zM297 584h594q-6 136 -81 220.5t-216 84.5q-142 0 -217 -84.5t-80 -220.5zM465 1188l186 358h191l-187 -358h-190z" />
<glyph unicode="&#xea;" horiz-adv-x="1181" d="M102 453v118q0 63 15 126.5t51.5 128t90.5 114t141 80.5t194 31t193.5 -31t141 -80.5t91 -114t51 -128t14.5 -126.5v-151h-788q9 -126 87.5 -205.5t215.5 -79.5q98 0 165 42.5t99 115.5h209q-20 -64 -57 -119t-93 -101.5t-139 -73t-184 -26.5q-107 0 -194.5 31 t-142.5 80.5t-92.5 114t-53 128t-15.5 126.5zM285 1194l207 358h200l207 -358h-182l-125 229l-125 -229h-182zM297 584h594q-6 136 -81 220.5t-216 84.5q-142 0 -217 -84.5t-80 -220.5z" />
<glyph unicode="&#xeb;" horiz-adv-x="1181" d="M102 453v118q0 63 15 126.5t51.5 128t90.5 114t141 80.5t194 31t193.5 -31t141 -80.5t91 -114t51 -128t14.5 -126.5v-151h-788q9 -126 87.5 -205.5t215.5 -79.5q98 0 165 42.5t99 115.5h209q-20 -64 -57 -119t-93 -101.5t-139 -73t-184 -26.5q-107 0 -194.5 31 t-142.5 80.5t-92.5 114t-53 128t-15.5 126.5zM242 1210v199h207v-199h-207zM297 584h594q-6 136 -81 220.5t-216 84.5q-142 0 -217 -84.5t-80 -220.5zM735 1210v199h207v-199h-207z" />
<glyph unicode="&#xec;" horiz-adv-x="485" d="M-27 1550h191l186 -358h-190zM143 0v1024h199v-1024h-199z" />
<glyph unicode="&#xed;" horiz-adv-x="485" d="M117 1188l186 358h191l-187 -358h-190zM143 0v1024h199v-1024h-199z" />
<glyph unicode="&#xee;" horiz-adv-x="485" d="M-63 1194l206 358h201l207 -358h-182l-125 229l-125 -229h-182zM143 0v1024h199v-1024h-199z" />
<glyph unicode="&#xef;" horiz-adv-x="485" d="M-106 1210v199h206v-199h-206zM143 0v1024h199v-1024h-199zM387 1210v199h207v-199h-207z" />
<glyph unicode="&#xf0;" d="M102 432v160q0 63 15 124.5t51.5 123t91 107.5t141 75t193.5 29q75 0 140.5 -23.5t107.5 -60.5q-36 107 -105 219l-415 -2v137h321q-63 86 -143 170l182 82q110 -140 178 -252h270v-135h-194q149 -302 149 -594v-160q0 -63 -15 -124.5t-51 -123t-90.5 -107.5t-141 -75 t-193.5 -29t-193.5 29t-141 75t-91 107.5t-51.5 123t-15 124.5zM303 442q0 -141 71 -224t220 -83t220 83t71 224v140q0 144 -71 225.5t-220 81.5t-220 -81.5t-71 -225.5v-140z" />
<glyph unicode="&#xf1;" horiz-adv-x="1255" d="M143 0h199v621q0 110 72.5 183t195.5 73q158 0 233 -71.5t75 -225.5v-580h198v616q0 196 -114 315.5t-330 119.5q-231 0 -367 -148v121h-162v-1024zM219 1280l64 -102q86 90 186 90q34 0 77 -19t102.5 -38t135.5 -19q94 0 157 42.5t91 94.5l-84 101q-85 -97 -194 -97 q-35 0 -71 13.5t-63 30.5t-70.5 30.5t-90.5 13.5q-156 0 -240 -141z" />
<glyph unicode="&#xf2;" d="M102 432v160q0 63 15 124.5t51.5 123t91 107.5t141 75t193.5 29t193.5 -29t141 -75t90.5 -107.5t51 -123t15 -124.5v-160q0 -63 -15 -124.5t-51 -123t-90.5 -107.5t-141 -75t-193.5 -29t-193.5 29t-141 75t-91 107.5t-51.5 123t-15 124.5zM303 442q0 -141 71 -224 t220 -83t220 83t71 224v140q0 144 -71 225.5t-220 81.5t-220 -81.5t-71 -225.5v-140zM324 1550h190l186 -358h-190z" />
<glyph unicode="&#xf3;" d="M102 432v160q0 63 15 124.5t51.5 123t91 107.5t141 75t193.5 29t193.5 -29t141 -75t90.5 -107.5t51 -123t15 -124.5v-160q0 -63 -15 -124.5t-51 -123t-90.5 -107.5t-141 -75t-193.5 -29t-193.5 29t-141 75t-91 107.5t-51.5 123t-15 124.5zM303 442q0 -141 71 -224 t220 -83t220 83t71 224v140q0 144 -71 225.5t-220 81.5t-220 -81.5t-71 -225.5v-140zM467 1188l186 358h191l-187 -358h-190z" />
<glyph unicode="&#xf4;" d="M102 432v160q0 63 15 124.5t51.5 123t91 107.5t141 75t193.5 29t193.5 -29t141 -75t90.5 -107.5t51 -123t15 -124.5v-160q0 -63 -15 -124.5t-51 -123t-90.5 -107.5t-141 -75t-193.5 -29t-193.5 29t-141 75t-91 107.5t-51.5 123t-15 124.5zM287 1194l207 358h200l207 -358 h-182l-125 229l-125 -229h-182zM303 442q0 -141 71 -224t220 -83t220 83t71 224v140q0 144 -71 225.5t-220 81.5t-220 -81.5t-71 -225.5v-140z" />
<glyph unicode="&#xf5;" d="M102 432v160q0 63 15 124.5t51.5 123t91 107.5t141 75t193.5 29t193.5 -29t141 -75t90.5 -107.5t51 -123t15 -124.5v-160q0 -63 -15 -124.5t-51 -123t-90.5 -107.5t-141 -75t-193.5 -29t-193.5 29t-141 75t-91 107.5t-51.5 123t-15 124.5zM184 1280l64 -102q86 90 186 90 q28 0 62 -12t63 -26t80 -26t111 -12q93 0 156 42.5t91 94.5l-84 101q-85 -97 -194 -97q-35 0 -71 13.5t-63 30.5t-70.5 30.5t-90.5 13.5q-156 0 -240 -141zM303 442q0 -141 71 -224t220 -83t220 83t71 224v140q0 144 -71 225.5t-220 81.5t-220 -81.5t-71 -225.5v-140z" />
<glyph unicode="&#xf6;" d="M102 432v160q0 63 15 124.5t51.5 123t91 107.5t141 75t193.5 29t193.5 -29t141 -75t90.5 -107.5t51 -123t15 -124.5v-160q0 -63 -15 -124.5t-51 -123t-90.5 -107.5t-141 -75t-193.5 -29t-193.5 29t-141 75t-91 107.5t-51.5 123t-15 124.5zM244 1210v199h207v-199h-207z M303 442q0 -141 71 -224t220 -83t220 83t71 224v140q0 144 -71 225.5t-220 81.5t-220 -81.5t-71 -225.5v-140zM737 1210v199h207v-199h-207z" />
<glyph unicode="&#xf7;" horiz-adv-x="1132" d="M113 602h907v168h-907v-168zM471 240v184h188v-184h-188zM471 944v184h188v-184h-188z" />
<glyph unicode="&#xf8;" horiz-adv-x="1183" d="M68 2l120 145q-90 120 -90 285v160q0 63 15 124.5t51.5 123t91 107.5t141 75t193.5 29q167 0 287 -70l36 45h203l-125 -152q90 -117 90 -282v-160q0 -63 -15 -124.5t-51 -123t-90.5 -107.5t-141 -75t-193.5 -29q-168 0 -285 70l-35 -43zM299 442q0 -79 20 -135l445 539 q-68 43 -174 43q-149 0 -220 -81.5t-71 -225.5v-140zM418 178q68 -43 172 -43q149 0 220 83t71 224v140q0 70 -19 135z" />
<glyph unicode="&#xf9;" horiz-adv-x="1255" d="M139 408q0 -196 114.5 -315.5t330.5 -119.5q230 0 366 148v-121h162v1024h-199v-621q0 -110 -72.5 -183t-195.5 -73q-158 0 -232.5 71.5t-74.5 225.5v580h-199v-616zM358 1550h191l186 -358h-190z" />
<glyph unicode="&#xfa;" horiz-adv-x="1255" d="M139 408q0 -196 114.5 -315.5t330.5 -119.5q230 0 366 148v-121h162v1024h-199v-621q0 -110 -72.5 -183t-195.5 -73q-158 0 -232.5 71.5t-74.5 225.5v580h-199v-616zM502 1188l186 358h191l-187 -358h-190z" />
<glyph unicode="&#xfb;" horiz-adv-x="1255" d="M139 408q0 -196 114.5 -315.5t330.5 -119.5q230 0 366 148v-121h162v1024h-199v-621q0 -110 -72.5 -183t-195.5 -73q-158 0 -232.5 71.5t-74.5 225.5v580h-199v-616zM322 1194l206 358h201l207 -358h-182l-125 229l-125 -229h-182z" />
<glyph unicode="&#xfc;" horiz-adv-x="1255" d="M139 408q0 -196 114.5 -315.5t330.5 -119.5q230 0 366 148v-121h162v1024h-199v-621q0 -110 -72.5 -183t-195.5 -73q-158 0 -232.5 71.5t-74.5 225.5v580h-199v-616zM279 1210v199h206v-199h-206zM772 1210v199h207v-199h-207z" />
<glyph unicode="&#xfd;" horiz-adv-x="1146" d="M31 1024h221l348 -756l309 756h207l-620 -1528h-207l219 539zM446 1188l187 358h190l-186 -358h-191z" />
<glyph unicode="&#xfe;" horiz-adv-x="1234" d="M143 -504h201v584q122 -107 301 -107q111 0 203 38.5t150.5 102t91 144t32.5 166.5v176q0 89 -25.5 166.5t-79.5 143t-149 103.5t-223 38q-187 0 -301 -127v622h-201v-2050zM344 424v192q6 112 79 192.5t189 80.5q82 0 143.5 -24t97 -65.5t52.5 -91.5t17 -108v-176 q0 -58 -17 -107.5t-52.5 -90.5t-97 -65t-143.5 -24q-122 0 -195 85t-73 202z" />
<glyph unicode="&#xff;" horiz-adv-x="1146" d="M31 1024h221l348 -756l309 756h207l-620 -1528h-207l219 539zM223 1210v199h207v-199h-207zM717 1210v199h207v-199h-207z" />
<glyph unicode="&#x152;" horiz-adv-x="2351" d="M109 606v334q0 134 35.5 245.5t109 200t198.5 138t293 49.5q277 0 435 -133v106h1048v-172h-846v-491h781v-168h-781v-543h846v-172h-1048v106q-158 -133 -435 -133q-168 0 -293 49.5t-198.5 138t-109 200t-35.5 245.5zM311 633q0 -239 102.5 -363.5t331.5 -124.5 q228 0 331.5 125t103.5 363v280q0 238 -103.5 363t-331.5 125q-229 0 -331.5 -124.5t-102.5 -363.5v-280z" />
<glyph unicode="&#x153;" horiz-adv-x="1970" d="M102 432v160q0 63 15 124.5t51.5 123t91 107.5t141 75t193.5 29q264 0 399 -170q135 170 389 170q107 0 194 -31t141 -80.5t90.5 -114t51.5 -128t15 -126.5v-151h-789q9 -126 88 -205.5t216 -79.5q98 0 165 42.5t99 115.5h209q-20 -64 -57 -119t-93 -101.5t-139 -73 t-184 -26.5q-259 0 -396 172q-130 -172 -399 -172q-107 0 -193.5 29t-141 75t-91 107.5t-51.5 123t-15 124.5zM303 442q0 -141 71 -224t220 -83t220 83t71 224v140q0 144 -71 225.5t-220 81.5t-220 -81.5t-71 -225.5v-140zM1085 584h594q-6 136 -81 220.5t-216 84.5 q-142 0 -217 -84.5t-80 -220.5z" />
<glyph unicode="&#x178;" horiz-adv-x="1275" d="M20 1546h224l393 -667l395 667h223l-516 -862v-684h-202v684zM289 1733v198h207v-198h-207zM782 1733v198h207v-198h-207z" />
<glyph unicode="&#x2c6;" horiz-adv-x="942" d="M164 1186l207 358h200l207 -358h-182l-125 229l-125 -229h-182z" />
<glyph unicode="&#x2dc;" horiz-adv-x="915" d="M51 1280l64 -102q86 90 186 90q34 0 77 -19t102.5 -38t135.5 -19q94 0 157 42.5t91 94.5l-84 101q-85 -97 -194 -97q-35 0 -71 13.5t-63 30.5t-70.5 30.5t-90.5 13.5q-156 0 -240 -141z" />
<glyph unicode="&#x2000;" horiz-adv-x="1037" />
<glyph unicode="&#x2001;" horiz-adv-x="2075" />
<glyph unicode="&#x2002;" horiz-adv-x="1037" />
<glyph unicode="&#x2003;" horiz-adv-x="2075" />
<glyph unicode="&#x2004;" horiz-adv-x="691" />
<glyph unicode="&#x2005;" horiz-adv-x="518" />
<glyph unicode="&#x2006;" horiz-adv-x="345" />
<glyph unicode="&#x2007;" horiz-adv-x="345" />
<glyph unicode="&#x2008;" horiz-adv-x="259" />
<glyph unicode="&#x2009;" horiz-adv-x="415" />
<glyph unicode="&#x200a;" horiz-adv-x="115" />
<glyph unicode="&#x2010;" horiz-adv-x="1093" d="M143 502h807v168h-807v-168z" />
<glyph unicode="&#x2011;" horiz-adv-x="1093" d="M143 502h807v168h-807v-168z" />
<glyph unicode="&#x2012;" horiz-adv-x="1093" d="M143 502h807v168h-807v-168z" />
<glyph unicode="&#x2013;" horiz-adv-x="1261" d="M143 508h975v168h-975v-168z" />
<glyph unicode="&#x2014;" horiz-adv-x="1593" d="M143 508h1307v168h-1307v-168z" />
<glyph unicode="&#x2018;" horiz-adv-x="475" d="M51 1544h191l182 -471h-191z" />
<glyph unicode="&#x2019;" horiz-adv-x="475" d="M51 1073l182 471h191l-182 -471h-191z" />
<glyph unicode="&#x201a;" horiz-adv-x="475" d="M51 -238l182 471h191l-182 -471h-191z" />
<glyph unicode="&#x201c;" horiz-adv-x="854" d="M51 1544h191l182 -471h-191zM430 1544h191l182 -471h-191z" />
<glyph unicode="&#x201d;" horiz-adv-x="854" d="M51 1073l182 471h191l-182 -471h-191zM430 1073l182 471h191l-182 -471h-191z" />
<glyph unicode="&#x201e;" horiz-adv-x="854" d="M51 -238l182 471h191l-182 -471h-191zM430 -238l182 471h191l-182 -471h-191z" />
<glyph unicode="&#x2022;" horiz-adv-x="882" d="M143 752q0 123 87 210t210 87t211 -87t88 -210t-88 -211t-211 -88t-210 88t-87 211z" />
<glyph unicode="&#x2026;" horiz-adv-x="1353" d="M133 0v236h240v-236h-240zM557 0v236h240v-236h-240zM981 0v236h240v-236h-240z" />
<glyph unicode="&#x202f;" horiz-adv-x="415" />
<glyph unicode="&#x2039;" horiz-adv-x="716" d="M133 510l268 354h162l-225 -354l225 -354h-162z" />
<glyph unicode="&#x203a;" horiz-adv-x="716" d="M154 156l225 354l-225 354h161l269 -354l-269 -354h-161z" />
<glyph unicode="&#x205f;" horiz-adv-x="518" />
<glyph unicode="&#x20ac;" horiz-adv-x="1542" d="M94 498l21 168h131v170h-152l25 168h131q40 569 612 569q522 0 578 -481l-205 -2q-46 311 -373 311q-88 0 -156.5 -22t-112.5 -58t-74 -88.5t-44 -107.5t-20 -121h542l-20 -168h-526v-170h460l-20 -168h-430q52 -351 401 -351q92 0 160 23.5t109.5 67t64.5 95t35 118.5 l207 -2q-7 -53 -18.5 -99t-33 -96t-51 -89.5t-74 -76.5t-100 -61.5t-132 -39t-167.5 -14.5q-130 0 -233.5 31.5t-168.5 82t-110.5 121t-66.5 140.5t-29 150h-160z" />
<glyph unicode="&#x2122;" horiz-adv-x="1501" d="M143 1430v116h549v-116h-217v-582h-127v582h-205zM756 848v698h123l178 -295l178 295h123v-698h-127v459l-127 -205h-96l-125 205v-459h-127z" />
<glyph unicode="&#x25fc;" horiz-adv-x="1024" d="M0 0v1024h1024v-1024h-1024z" />
<glyph unicode="&#xfb03;" horiz-adv-x="1617" d="M72 856v168h145v133q0 205 78.5 297t230.5 92h84v-162h-67q-127 0 -127 -182v-178h325v133q0 205 79 297t231 92h84v-162h-68q-127 0 -127 -182v-178h541v-1024h-199v856h-342v-856h-199v856h-325v-856h-199v856h-145zM1282 1356v190h199v-190h-199z" />
<glyph unicode="&#xfb04;" horiz-adv-x="1628" d="M72 856v168h145v133q0 205 78.5 297t230.5 92h84v-162h-67q-127 0 -127 -182v-178h325v133q0 205 79 297t231 92h84v-162h-68q-127 0 -127 -182v-178h182v-168h-182v-856h-199v856h-325v-856h-199v856h-145zM1292 0v1546h199v-1546h-199z" />
</font>
</defs>
</svg>
